<svg aria-hidden="true" style="position: absolute; width: 0; height: 0; overflow: hidden;" version="1.1" xmlns="http://www.w3.org/2000/svg">
<defs>
<symbol id="icon-telegram" viewBox="0 0 32 32">
<path d="M26.069 3.996c-0.342 0.025-0.66 0.105-0.953 0.23l0.019-0.007h-0.003c-0.285 0.113-1.64 0.683-3.7 1.547l-7.383 3.109c-5.297 2.232-10.504 4.427-10.504 4.427l0.063-0.024s-0.36 0.117-0.733 0.373c-0.233 0.149-0.432 0.341-0.587 0.568-0.18 0.261-0.287 0.585-0.287 0.933 0 0.063 0.003 0.124 0.010 0.185l-0.001-0.007c0.089 0.721 0.557 1.155 0.893 1.393 0.34 0.243 0.664 0.355 0.664 0.355h0.008l4.884 1.645c0.219 0.703 1.488 4.875 1.792 5.836 0.18 0.573 0.356 0.933 0.575 1.207 0.107 0.14 0.229 0.257 0.379 0.352 0.077 0.045 0.16 0.080 0.247 0.107l-0.051-0.013c0.015 0.004 0.027 0.016 0.039 0.020 0.040 0.011 0.067 0.015 0.117 0.023 0.773 0.235 1.395-0.245 1.395-0.245l0.035-0.028 2.883-2.625 4.832 3.707 0.111 0.048c1.007 0.441 2.027 0.196 2.565-0.239 0.544-0.437 0.755-0.996 0.755-0.996l0.035-0.089 3.733-19.129c0.107-0.472 0.133-0.915 0.017-1.343-0.121-0.435-0.4-0.808-0.781-1.048-0.277-0.171-0.612-0.272-0.971-0.272-0.034 0-0.067 0.001-0.1 0.003l0.005-0zM25.969 6.045c-0.004 0.064 0.008 0.056-0.020 0.177v0.011l-3.699 18.931c-0.016 0.027-0.044 0.085-0.117 0.145-0.079 0.061-0.14 0.1-0.465-0.028l-5.911-4.532-3.569 3.253 0.749-4.789 9.656-9c0.399-0.369 0.267-0.448 0.267-0.448 0.027-0.453-0.601-0.133-0.601-0.133l-12.179 7.545-0.004-0.020-5.849-1.972c0.012-0.004 0.021-0.009 0.031-0.014l-0.001 0.001 0.032-0.015 0.031-0.011 10.508-4.427c2.652-1.117 5.324-2.241 7.379-3.109 1.219-0.513 2.44-1.024 3.66-1.531 0.083-0.032 0.044-0.032 0.103-0.032z" />
</symbol>
<symbol id="icon-linkedin" viewBox="0 0 32 32">
<path d="M31.992 32h0.008v-11.74c0-5.74-1.236-10.164-7.948-10.164-3.226 0-5.392 1.772-6.276 3.45h-0.094v-2.912h-6.362v21.366h6.628v-10.58c0-2.784 0.528-5.476 3.976-5.476 3.4 0 3.45 3.178 3.45 5.656v10.4h6.62zM0.528 10.636h6.634v21.364h-6.634v-21.364zM3.842 0c-2.12 0-3.84 1.72-3.84 3.84s1.72 3.88 3.84 3.88c2.122 0 3.844-1.76 3.844-3.88s-1.726-3.84-3.846-3.84z" />
</symbol>
<symbol id="icon-github" viewBox="0 0 32 32">
<path d="M16 0.395c-8.836 0-16 7.163-16 16 0 7.069 4.585 13.067 10.942 15.182 0.8 0.148 1.094-0.347 1.094-0.77 0-0.381-0.015-1.642-0.022-2.979-4.452 0.968-5.391-1.888-5.391-1.888-0.728-1.849-1.776-2.341-1.776-2.341-1.452-0.993 0.11-0.973 0.11-0.973 1.606 0.113 2.452 1.649 2.452 1.649 1.427 2.446 3.743 1.739 4.656 1.33 0.143-1.034 0.558-1.74 1.016-2.14-3.554-0.404-7.29-1.777-7.29-7.907 0-1.747 0.625-3.174 1.649-4.295-0.166-0.403-0.714-2.030 0.155-4.234 0 0 1.344-0.43 4.401 1.64 1.276-0.355 2.645-0.532 4.005-0.539 1.359 0.006 2.729 0.184 4.008 0.539 3.054-2.070 4.395-1.64 4.395-1.64 0.871 2.204 0.323 3.831 0.157 4.234 1.026 1.12 1.647 2.548 1.647 4.295 0 6.145-3.743 7.498-7.306 7.895 0.574 0.497 1.085 1.47 1.085 2.963 0 2.141-0.019 3.864-0.019 4.391 0 0.426 0.288 0.925 1.099 0.768 6.354-2.118 10.933-8.113 10.933-15.18 0-8.837-7.164-16-16-16z" />
</symbol>
<svg id="icon-location" viewBox="0 0 16 16">
<path d="M8 0c-2.761 0-5 2.239-5 5 0 5 5 11 5 11s5-6 5-11c0-2.761-2.239-5-5-5zM8 8c-1.657 0-3-1.343-3-3s1.343-3 3-3 3 1.343 3 3-1.343 3-3 3z" />
</svg>
<svg id="icon-mail" viewBox="0 0 16 16">
<path d="M13.333 0h-10.666c-1.467 0-2.667 1.2-2.667 2.667v10.666c0 1.468 1.2 2.667 2.667 2.667h10.666c1.467 0 2.667-1.199 2.667-2.667v-10.666c0-1.467-1.2-2.667-2.667-2.667zM13.333 2c0.125 0 0.243 0.036 0.344 0.099l-5.678 4.694-5.677-4.694c0.101-0.063 0.219-0.099 0.344-0.099h10.666zM2.667 14c-0.030 0-0.060-0.002-0.089-0.006l3.525-4.89-0.457-0.457-3.646 3.646v-9.549l6 7.256 6-7.256v9.549l-3.646-3.646-0.457 0.457 3.525 4.89c-0.029 0.004-0.059 0.006-0.088 0.006h-10.666z" />
</svg>
<svg id="icon-mobile"  viewBox="0 0 16 16">
<path d="M11.5 0h-7c-0.825 0-1.5 0.675-1.5 1.5v13c0 0.825 0.675 1.5 1.5 1.5h7c0.825 0 1.5-0.675 1.5-1.5v-13c0-0.825-0.675-1.5-1.5-1.5zM6 0.75h4v0.5h-4v-0.5zM8 15c-0.552 0-1-0.448-1-1s0.448-1 1-1 1 0.448 1 1-0.448 1-1 1zM12 12h-8v-10h8v10z" />
</svg>
</defs>
</svg>
